<?xml version="1.0" encoding="utf-8"?>
<!-- Generator: Adobe Illustrator 21.0.0, SVG Export Plug-In . SVG Version: 6.00 Build 0)  -->
<svg version="1.1" id="Capa_1" xmlns="http://www.w3.org/2000/svg" xmlns:xlink="http://www.w3.org/1999/xlink" x="0px" y="0px"
	 viewBox="0 0 1366 768" style="enable-background:new 0 0 1366 768;" xml:space="preserve">
<path d="M665.3,709.8c-48.1,0-96.3-0.2-144.4,0.2c-17.1,0.2-33-4.2-48.1-11.9c-19.2-10-35.1-24.2-47.8-41.8
	c-10.2-14.2-16.1-30.3-18.4-47.6c-1.3-10-2.1-20.3-2.1-30.5c-0.2-74-0.2-148.1-0.2-222.1c0-15.3,1.3-30.3,4.6-45.3
	c4.2-19.2,12.3-36.8,23.4-52.9c9.8-14,20.1-27.6,30.5-40.9c28.6-36.8,57.5-73.5,86.1-110.3c8.6-11.1,18-21.5,28.8-30.5
	c8.4-6.9,17.1-12.7,27.2-16.7c2.3-0.8,4.8-1.5,7.3-1.5c68.7,0,137.5,0,206,0c3.1,0,6.3,0.6,9.4,1.5c20.9,6.3,38.2,18.2,52.2,34.7
	c9.4,11.1,17.3,23,23.6,35.9c28,56.8,56,113.9,83.8,170.9c7.7,16.1,13.8,33,16.7,50.8c6.5,37.6,2.7,74.4-12.7,109.5
	c-6.5,15-14,29.5-21.5,44.1c-21.9,43.5-44.1,86.7-66.2,130c-7.1,13.8-14.8,27.4-25.1,39.3c-13.4,15.7-29.5,27.2-49.1,33.4
	c-3.8,1.3-7.7,1.9-11.7,2.1C767,709.8,716.1,709.8,665.3,709.8L665.3,709.8z M671.2,136.9c-9,0-17.1,0.4-25.3-0.2
	c-6.3-0.4-11.1,1.9-15.3,6.1s-8.1,8.8-11.9,13.6c-34.5,43.9-68.9,87.7-103.4,131.8c-12.3,15.7-19.4,33.4-22.8,52.9
	c-2.5,15.3-2.9,30.5-2.9,46c0,59.5,0,119.1,0,178.4c0,3.8-0.2,7.7,0.2,11.5c0.6,6.3,1.3,12.7,2.5,18.8c3.1,16.1,13.2,25.3,29,28.6
	c9.8,2.1,19.8,2.3,29.9,2.3c36.8,0,73.5,0,110.3,0c1.9,0,3.6,0,6.1,0c0.2-43.9,0.6-87.3,0.8-131.2c-2.3,0-4.2,0-6.1,0
	c-4-0.2-7.9,0-12.1-0.4c-17.3-1.7-30.5-12.5-34.1-29.2c-1.3-6.1-1.7-12.7-1.3-18.8c1.5-19.4,13.2-32.4,32-35.7
	c4.8-0.8,9.6-0.8,14.4-1c2.3-0.2,4.6,0,7.3,0C669.7,318.9,670.5,228.2,671.2,136.9z M825.5,410c0,2.7,0,4.6,0,6.7
	c0,31.1,0.2,62.1,0,93.2c-0.2,31.1,1.5,62.3-1,93.4c1.3-1.7,2.3-3.6,3.1-5.4c21.3-42.4,42.8-84.6,63.9-127
	c7.7-15.5,15.5-30.7,22.4-46.4c8.8-19.6,9.6-40.1,5-60.8c-2.7-11.7-7.5-22.6-12.5-33.2c-13.8-28.6-27.6-57.2-41.4-85.7
	c-11.7-24.4-23.4-48.9-35.3-73.1c-3.6-7.1-7.7-14-12.3-20.5c-4.4-6.5-11.1-10-18.8-11.5c-13.8-2.5-27.6-1.9-41.4-1.7
	c-0.2,0-0.2,0.2-0.8,0.6c-0.2,29.9-0.6,60-0.8,90.3c-0.2,30.1-0.4,60.2-0.6,90.3c-0.2,30.1-1,60.4-0.6,90.9
	C778.5,410,801.5,410,825.5,410z"/>
</svg>
